<svg xmlns="http://www.w3.org/2000/svg" width="37.5" height="37.5" viewBox="0 0 37.5 37.5"><defs><style>.a{fill:#112d46;}</style></defs><g transform="translate(-4 7.465)"><g transform="translate(4 -7.466)"><g transform="translate(0 0)"><path class="a" d="M32.159,1.821A1.62,1.62,0,0,0,30.608,3.5V4.9A17.512,17.512,0,0,0,18.506,0C8.3,0,0,9.034,0,20.137a1.62,1.62,0,0,0,1.55,1.681A1.62,1.62,0,0,0,3.1,20.137c0-9.25,6.911-16.775,15.405-16.775a14.569,14.569,0,0,1,9.986,4H27.071a1.62,1.62,0,0,0-1.55,1.681,1.62,1.62,0,0,0,1.55,1.681h5.088a1.62,1.62,0,0,0,1.55-1.681V3.5A1.62,1.62,0,0,0,32.159,1.821Z" transform="translate(0 0)"/></g><g transform="translate(3.969 15.682)"><path class="a" d="M69.758,176.32A1.62,1.62,0,0,0,68.208,178c0,9.25-6.908,16.775-15.4,16.775a14.547,14.547,0,0,1-9.886-3.908h1.488a1.686,1.686,0,0,0,0-3.362H39.326c-.014,0-.026,0-.04,0a1.391,1.391,0,0,0-.176.019c-.043.007-.087.011-.129.022a1.47,1.47,0,0,0-.152.051c-.046.018-.094.033-.139.055s-.083.048-.124.073a1.655,1.655,0,0,0-.143.095c-.012.009-.025.014-.036.024s-.046.049-.071.072a1.528,1.528,0,0,0-.119.121c-.035.04-.065.082-.1.125s-.06.086-.087.131-.05.1-.073.145-.043.1-.061.147-.032.1-.045.158-.026.1-.033.155-.013.119-.017.18c0,.034-.009.068-.009.1v5.54a1.555,1.555,0,1,0,3.1,0v-1.336a17.488,17.488,0,0,0,11.934,4.746c10.2,0,18.5-9.034,18.5-20.137A1.62,1.62,0,0,0,69.758,176.32Z" transform="translate(-37.776 -176.32)"/></g></g></g></svg>